{
  "source": "C:\\Users\\Peter\\Desktop\\stuff\\MIUN\\quantitative_research\\video_compression\\videos\\BVI-HD\\BVI-HD_CDVL_videos\\ORIG\\ParkPlay_1920x1080_50fps.mp4",
  "output": "C:\\Users\\Peter\\Desktop\\stuff\\MIUN\\quantitative_research\\video_compression\\compressed_videos\\BVI-HD\\h264\\2\\ParkPlay_1920x1080_50fps_h264.mp4",
  "codec": "h264",
  "ok": "Input #0, mov,mp4,m4a,3gp,3g2,mj2, from 'C:\\Users\\Peter\\Desktop\\stuff\\MIUN\\quantitative_research\\video_compression\\videos\\BVI-HD\\BVI-HD_CDVL_videos\\ORIG\\ParkPlay_1920x1080_50fps.mp4':\n  Metadata:\n    major_brand     : isom\n    minor_version   : 512\n    compatible_brands: isomiso2avc1mp41\n    encoder         : Lavf54.28.101\n  Duration: 00:00:05.00, start: 0.000000, bitrate: 620563 kb/s\n  Stream #0:0[0x1](und): Video: h264 (High 4:4:4 Predictive) (avc1 / 0x31637661), yuv420p(progressive), 1920x1080, 620558 kb/s, 50 fps, 50 tbr, 50 tbn (default)\n    Metadata:\n      handler_name    : VideoHandler\n      vendor_id       : [0][0][0][0]\n[out#0/mp4 @ 000001ddf6959980] Codec AVOption b:a (set bitrate (in bits/s)) has not been used for any stream. The most likely reason is either wrong type (e.g. a video option with no video streams) or that it is a private option of some decoder which was not actually used for any stream.\nStream mapping:\n  Stream #0:0 -> #0:0 (h264 (native) -> h264 (libx264))\nPress [q] to stop, [?] for help\n[libx264 @ 000001ddf6f059c0] using cpu capabilities: MMX2 SSE2Fast SSSE3 SSE4.2 AVX FMA3 BMI2 AVX2\n[libx264 @ 000001ddf6f059c0] profile High, level 5.0, 4:2:0, 8-bit\n[libx264 @ 000001ddf6f059c0] 264 - core 165 r3222 b35605a - H.264/MPEG-4 AVC codec - Copyleft 2003-2025 - http://www.videolan.org/x264.html - options: cabac=1 ref=5 deblock=1:0:0 analyse=0x3:0x113 me=hex subme=8 psy=1 psy_rd=1.00:0.00 mixed_ref=1 me_range=16 chroma_me=1 trellis=2 8x8dct=1 cqm=0 deadzone=21,11 fast_pskip=1 chroma_qp_offset=-2 threads=18 lookahead_threads=3 sliced_threads=0 nr=0 decimate=1 interlaced=0 bluray_compat=0 constrained_intra=0 bframes=3 b_pyramid=2 b_adapt=1 b_bias=0 direct=3 weightb=1 open_gop=0 weightp=2 keyint=250 keyint_min=25 scenecut=40 intra_refresh=0 rc_lookahead=50 rc=cbr mbtree=1 bitrate=2000 ratetol=1.0 qcomp=0.60 qpmin=0 qpmax=69 qpstep=4 vbv_maxrate=2000 vbv_bufsize=2000 nal_hrd=none filler=0 ip_ratio=1.40 aq=1:1.00\nOutput #0, mp4, to 'C:\\Users\\Peter\\Desktop\\stuff\\MIUN\\quantitative_research\\video_compression\\compressed_videos\\BVI-HD\\h264\\2\\ParkPlay_1920x1080_50fps_h264.mp4':\n  Metadata:\n    major_brand     : isom\n    minor_version   : 512\n    compatible_brands: isomiso2avc1mp41\n    encoder         : Lavf62.3.100\n  Stream #0:0(und): Video: h264 (avc1 / 0x31637661), yuv420p(tv, progressive), 1920x1080, q=2-31, 2000 kb/s, 50 fps, 12800 tbn (default)\n    Metadata:\n      encoder         : Lavc62.11.100 libx264\n      handler_name    : VideoHandler\n      vendor_id       : [0][0][0][0]\n    Side data:\n      cpb: bitrate max/min/avg: 2000000/0/2000000 buffer size: 2000000 vbv_delay: N/A\nframe=    0 fps=0.0 q=0.0 size=       0KiB time=N/A bitrate=N/A speed=N/A elapsed=0:00:00.53    \nframe=    0 fps=0.0 q=0.0 size=       0KiB time=N/A bitrate=N/A speed=N/A elapsed=0:00:01.08    \nframe=    0 fps=0.0 q=0.0 size=       0KiB time=N/A bitrate=N/A speed=N/A elapsed=0:00:01.65    \nframe=    4 fps=1.8 q=49.0 size=       0KiB time=N/A bitrate=N/A speed=N/A elapsed=0:00:02.21    \nframe=   32 fps= 11 q=47.0 size=       0KiB time=00:00:00.52 bitrate=   0.7kbits/s speed=0.182x elapsed=0:00:02.85    \nframe=   56 fps= 16 q=47.0 size=       0KiB time=00:00:01.00 bitrate=   0.4kbits/s speed=0.287x elapsed=0:00:03.48    \nframe=   68 fps= 16 q=47.0 size=     256KiB time=00:00:01.28 bitrate=1638.7kbits/s speed=0.307x elapsed=0:00:04.16    \nframe=   92 fps= 19 q=47.0 size=     256KiB time=00:00:01.72 bitrate=1219.5kbits/s speed=0.364x elapsed=0:00:04.72    \nframe=  108 fps= 20 q=46.0 size=     256KiB time=00:00:02.12 bitrate= 989.4kbits/s speed=0.396x elapsed=0:00:05.35    \nframe=  127 fps= 21 q=45.0 size=     512KiB time=00:00:02.50 bitrate=1677.9kbits/s speed=0.419x elapsed=0:00:05.96    \nframe=  146 fps= 22 q=45.0 size=     512KiB time=00:00:02.86 bitrate=1466.7kbits/s speed=0.44x elapsed=0:00:06.50    \nframe=  167 fps= 24 q=45.0 size=     512KiB time=00:00:03.26 bitrate=1286.7kbits/s speed=0.461x elapsed=0:00:07.07    \nframe=  191 fps= 25 q=45.0 size=     768KiB time=00:00:03.64 bitrate=1728.5kbits/s speed=0.475x elapsed=0:00:07.66    \nframe=  217 fps= 26 q=43.0 size=     768KiB time=00:00:04.30 bitrate=1463.2kbits/s speed=0.521x elapsed=0:00:08.25    \nframe=  249 fps= 28 q=-1.0 size=    1024KiB time=00:00:04.78 bitrate=1755.0kbits/s speed=0.543x elapsed=0:00:08.80    \n[mp4 @ 000001ddf6959a80] Starting second pass: moving the moov atom to the beginning of the file\n[out#0/mp4 @ 000001ddf6959980] video:1082KiB audio:0KiB subtitle:0KiB other streams:0KiB global headers:0KiB muxing overhead: 0.349645%\nframe=  250 fps= 28 q=-1.0 Lsize=    1086KiB time=00:00:04.96 bitrate=1793.8kbits/s speed=0.556x elapsed=0:00:08.92    \n[libx264 @ 000001ddf6f059c0] frame I:1     Avg QP:43.49  size: 25034\n[libx264 @ 000001ddf6f059c0] frame P:63    Avg QP:45.56  size:  8665\n[libx264 @ 000001ddf6f059c0] frame B:186   Avg QP:48.87  size:  2885\n[libx264 @ 000001ddf6f059c0] consecutive B-frames:  0.8%  0.0%  0.0% 99.2%\n[libx264 @ 000001ddf6f059c0] mb I  I16..4: 55.1% 41.8%  3.1%\n[libx264 @ 000001ddf6f059c0] mb P  I16..4:  6.8%  3.3%  0.1%  P16..4: 26.8%  1.8%  4.2%  0.0%  0.0%    skip:57.0%\n[libx264 @ 000001ddf6f059c0] mb B  I16..4:  0.1%  0.1%  0.0%  B16..8: 37.1%  0.4%  0.0%  direct: 0.2%  skip:62.1%  L0:39.5% L1:60.3% BI: 0.2%\n[libx264 @ 000001ddf6f059c0] 8x8 transform intra:34.3% inter:84.3%\n[libx264 @ 000001ddf6f059c0] direct mvs  spatial:94.6% temporal:5.4%\n[libx264 @ 000001ddf6f059c0] coded y,uvDC,uvAC intra: 10.7% 32.8% 4.0% inter: 1.0% 3.4% 0.0%\n[libx264 @ 000001ddf6f059c0] i16 v,h,dc,p: 31% 27%  8% 34%\n[libx264 @ 000001ddf6f059c0] i8 v,h,dc,ddl,ddr,vr,hd,vl,hu:  4%  4% 27% 11% 15%  9% 13%  7%  9%\n[libx264 @ 000001ddf6f059c0] i4 v,h,dc,ddl,ddr,vr,hd,vl,hu:  2%  3%  7% 16% 21% 10% 20%  7% 16%\n[libx264 @ 000001ddf6f059c0] i8c dc,h,v,p: 73% 15%  8%  3%\n[libx264 @ 000001ddf6f059c0] Weighted P-Frames: Y:1.6% UV:1.6%\n[libx264 @ 000001ddf6f059c0] ref P L0: 65.8%  2.6% 19.5%  5.6%  6.4%  0.1%\n[libx264 @ 000001ddf6f059c0] ref B L0: 91.9%  6.0%  1.5%  0.5%\n[libx264 @ 000001ddf6f059c0] ref B L1: 97.4%  2.6%\n[libx264 @ 000001ddf6f059c0] kb/s:1772.01\n",
  "seconds": 9.427321910858154,
  "probe_out": {}
}